<svg width="180" height="180" fill="none" xmlns="http://www.w3.org/2000/svg"><path d="M142.204 39.274H38.796c-6.73 0-10.96 7.259-7.64 13.114l51.46 90.785c3.357 5.922 11.884 5.94 15.264.031l51.947-90.785c3.351-5.856-.877-13.145-7.623-13.145z" fill="#000" stroke="#000"/><path d="M63.872 49.311l26.35 46.425 27.603-46.425h-12.547L90.221 75.033 75.165 49.311H63.872z" fill="#fff"/><path d="M90.221 135.259L40.66 49.311h11.293l38.268 66.5 38.269-66.5h11.92L90.221 135.26z" fill="#fff"/><path d="M63.872 49.311l26.35 46.425 27.603-46.425h-12.547L90.221 75.033 75.165 49.311H63.872z" stroke="#000"/><path d="M90.221 135.259L40.66 49.311h11.293l38.268 66.5 38.269-66.5h11.92L90.221 135.26z" stroke="#000"/></svg>
