<svg width="512" height="512" viewBox="0 0 1254 1254" fill="none" xmlns="http://www.w3.org/2000/svg">
  <rect width="1254" height="1254" rx="308" fill="#101111" />
  <rect x="44" y="44" width="1166" height="1166" rx="264" fill="#181A1A" opacity=".88" />
  <rect x="44" y="44" width="1166" height="1166" rx="264" fill="none" stroke="#2B2D2D" stroke-width="26" opacity=".72" />
  <path d="M65.500 113.178 C 64.400 113.792,63.344 114.422,63.153 114.577 C 62.963 114.733,73.587 131.654,86.762 152.180 C 99.937 172.706,117.582 200.300,125.973 213.500 C 134.364 226.700,143.686 241.325,146.688 246.000 C 149.691 250.675,156.884 261.925,162.672 271.000 C 168.461 280.075,175.798 291.550,178.976 296.500 C 182.155 301.450,188.346 311.125,192.732 318.000 C 225.022 368.603,274.209 445.289,304.016 491.500 C 340.272 547.710,362.806 582.712,375.478 602.500 C 382.522 613.500,390.714 626.256,393.684 630.848 L 399.082 639.195 397.195 642.348 C 396.157 644.081,383.178 664.400,368.354 687.500 C 353.529 710.600,339.212 733.029,336.539 737.342 L 331.678 745.185 333.539 748.342 C 335.680 751.977,385.028 828.646,406.694 862.000 C 414.732 874.375,424.952 890.248,429.405 897.273 C 433.857 904.298,449.744 929.048,464.708 952.273 C 487.202 987.183,517.550 1034.374,563.248 1105.500 C 566.782 1111.000,576.575 1126.300,585.011 1139.500 C 613.690 1184.374,626.137 1203.500,626.819 1203.736 C 627.415 1203.942,637.002 1189.111,686.066 1112.087 C 699.758 1090.592,726.504 1048.949,746.493 1018.000 C 774.424 974.757,819.945 904.089,832.809 884.000 C 848.398 859.655,915.910 754.998,921.410 746.650 C 922.057 745.668,919.626 740.963,913.006 730.384 C 903.551 715.275,874.901 670.446,863.457 652.855 C 860.006 647.550,856.678 642.268,856.063 641.117 C 855.073 639.269,858.520 633.454,885.615 591.262 C 931.568 519.704,940.188 506.311,954.003 485.000 C 960.956 474.275,975.878 451.100,987.164 433.500 C 998.449 415.900,1013.455 392.500,1020.511 381.500 C 1027.566 370.500,1043.093 346.200,1055.015 327.500 C 1066.937 308.800,1081.317 286.300,1086.972 277.500 C 1092.626 268.700,1103.116 252.275,1110.282 241.000 C 1125.154 217.601,1154.119 172.223,1157.516 167.000 C 1164.700 155.957,1191.000 114.723,1191.000 114.503 C 1191.000 114.360,1189.762 113.731,1188.250 113.106 C 1184.141 111.406,911.895 112.012,909.832 113.725 C 908.076 115.182,891.611 140.192,832.500 231.187 C 822.050 247.274,810.350 265.274,806.500 271.189 C 802.650 277.103,795.904 287.467,791.509 294.221 C 787.114 300.974,777.935 315.050,771.112 325.500 C 764.289 335.950,750.154 357.775,739.700 374.000 C 729.246 390.225,704.562 428.323,684.847 458.662 C 665.131 489.000,649.000 514.059,649.000 514.348 C 649.000 514.910,660.616 533.208,677.981 560.000 C 695.410 586.891,716.961 620.421,727.471 637.000 C 732.876 645.525,739.188 655.425,741.499 659.000 C 743.809 662.575,749.296 671.125,753.693 678.000 C 758.089 684.875,770.532 704.293,781.343 721.151 C 792.154 738.008,801.000 752.244,801.000 752.785 C 801.000 753.326,794.675 763.608,786.946 775.634 C 779.216 787.660,771.072 800.335,768.848 803.801 C 766.625 807.266,764.415 809.966,763.938 809.801 C 763.461 809.635,758.667 802.634,753.285 794.243 C 747.903 785.851,736.236 767.851,727.359 754.243 C 718.481 740.634,704.118 718.475,695.442 705.000 C 658.720 647.970,631.639 606.280,629.306 603.191 C 626.962 600.085,626.723 599.993,625.436 601.691 C 624.681 602.686,624.049 604.422,624.032 605.550 C 624.001 607.555,616.140 619.392,613.354 621.629 C 611.846 622.840,600.154 640.479,577.171 676.218 C 569.289 688.473,551.435 716.050,537.495 737.500 C 523.555 758.950,507.278 784.031,501.324 793.236 C 495.371 802.441,490.168 809.978,489.763 809.986 C 489.357 809.994,487.822 808.087,486.352 805.750 C 484.881 803.413,476.775 790.820,468.339 777.766 C 459.903 764.712,453.004 753.462,453.008 752.766 C 453.013 752.070,461.523 738.225,471.919 722.000 C 513.207 657.562,544.485 608.802,566.856 574.000 C 600.601 521.504,604.000 516.067,604.000 514.580 C 604.000 513.263,581.762 478.429,552.238 433.500 C 543.926 420.850,527.463 395.650,515.654 377.500 C 503.845 359.350,489.464 337.300,483.695 328.500 C 477.926 319.700,460.934 293.600,445.935 270.500 C 403.963 205.858,382.947 173.559,374.875 161.289 C 370.819 155.123,362.550 142.428,356.500 133.079 C 346.062 116.949,345.251 115.976,340.617 114.040 C 335.782 112.020,334.389 112.000,201.617 112.030 C 104.747 112.052,66.945 112.371,65.500 113.178 M446.500 113.048 C 444.300 113.508,440.587 113.911,438.250 113.942 C 435.913 113.974,434.000 114.286,434.000 114.636 C 434.000 115.346,444.308 131.659,465.509 164.500 C 473.320 176.600,490.871 203.825,504.512 225.000 C 534.837 272.075,558.395 308.611,565.883 320.178 C 589.924 357.319,600.324 373.266,612.523 391.692 L 626.553 412.884 634.863 400.192 C 642.854 387.990,670.599 344.921,727.000 257.171 C 741.575 234.494,756.480 211.342,760.122 205.720 C 770.985 188.954,804.140 137.290,811.278 126.006 L 817.917 115.512 815.208 114.006 C 812.827 112.682,790.668 112.483,631.500 112.356 C 531.950 112.276,448.700 112.588,446.500 113.048" transform="translate(627 627) scale(.78) translate(-627 -627)" fill="#FFF7E8" fill-rule="evenodd" />
</svg>
