<?xml version="1.0" standalone="no"?>
<!DOCTYPE svg PUBLIC "-//W3C//DTD SVG 20010904//EN"
 "http://www.w3.org/TR/2001/REC-SVG-20010904/DTD/svg10.dtd">
<svg version="1.0" xmlns="http://www.w3.org/2000/svg"
 width="700.000000pt" height="700.000000pt" viewBox="0 0 700.000000 700.000000"
 preserveAspectRatio="xMidYMid meet">
<metadata>
Created by potrace 1.11, written by Peter Selinger 2001-2013
</metadata>
<g transform="translate(0.000000,700.000000) scale(0.100000,-0.100000)"
fill="#000000" stroke="none">
<path d="M530 6441 c-80 -25 -140 -64 -202 -129 -66 -68 -102 -136 -124 -229
-19 -82 -13 -188 15 -262 10 -28 659 -1181 1442 -2563 1345 -2373 1428 -2517
1489 -2579 104 -105 212 -145 369 -137 155 9 280 79 364 206 71 105 2868 5000
2894 5064 66 160 25 363 -99 494 -63 67 -131 111 -209 135 -59 18 -142 19
-2972 18 -2754 0 -2915 -1 -2967 -18z m1903 -2348 c573 -997 1046 -1811 1050
-1810 5 1 477 818 1050 1814 l1042 1812 322 1 323 0 -43 -72 c-24 -40 -639
-1093 -1367 -2341 -1026 -1757 -1326 -2265 -1335 -2255 -7 7 -551 949 -1210
2093 -659 1144 -1263 2191 -1342 2328 l-142 247 305 -2 306 -3 1041 -1812z
m616 1118 c223 -382 411 -694 416 -695 6 0 193 312 417 694 l407 695 340 3
339 2 -744 -1252 c-410 -689 -749 -1257 -753 -1261 -5 -5 -241 403 -526 905
-286 502 -608 1069 -716 1261 l-198 347 306 -2 306 -3 406 -694z"/>
</g>
</svg>
