<?xml version="1.0" standalone="no"?>
<!DOCTYPE svg PUBLIC "-//W3C//DTD SVG 20010904//EN"
 "http://www.w3.org/TR/2001/REC-SVG-20010904/DTD/svg10.dtd">
<svg version="1.0" xmlns="http://www.w3.org/2000/svg"
 width="700.000000pt" height="700.000000pt" viewBox="0 0 700.000000 700.000000"
 preserveAspectRatio="xMidYMid meet">
<metadata>
Created by potrace 1.11, written by Peter Selinger 2001-2013
</metadata>
<g transform="translate(0.000000,700.000000) scale(0.100000,-0.100000)"
fill="#000000" stroke="none">
<path d="M1383 5449 c-70 -27 -146 -97 -180 -167 -25 -50 -28 -68 -28 -152 0
-87 3 -100 32 -155 17 -33 479 -850 1026 -1815 686 -1210 1008 -1768 1036
-1798 23 -24 67 -55 99 -70 48 -23 71 -27 142 -27 71 0 94 4 142 27 32 15 76
46 99 70 48 50 2079 3593 2105 3672 12 34 15 70 12 121 -6 94 -52 181 -126
242 -97 79 90 73 -2231 72 -2051 0 -2077 0 -2128 -20z m1382 -1661 c636 -1106
742 -1285 753 -1270 7 9 342 589 745 1289 l732 1273 232 0 232 0 -31 -52 c-35
-60 -1696 -2905 -1827 -3130 -47 -81 -89 -148 -92 -148 -7 0 -1919 3313 -1919
3324 0 3 98 5 217 4 l218 -3 740 -1287z m450 797 c159 -272 292 -495 295 -495
3 0 135 223 294 495 l288 495 245 0 245 0 -14 -22 c-8 -13 -246 -412 -528
-888 -282 -476 -518 -870 -524 -877 -8 -8 -144 223 -516 879 -278 490 -506
894 -508 899 -2 5 93 9 215 9 l218 0 290 -495z"/>
</g>
</svg>
